<svg width="86" height="26" viewBox="0 0 110 26" fill="none" xmlns="http://www.w3.org/2000/svg">
<path d="M31.8237 12.3917V4.40795C31.8235 4.20859 31.863 4.01111 31.9396 3.82686C32.0162 3.64259 32.1287 3.47514 32.2707 3.33408C32.4126 3.19302 32.5813 3.08112 32.7667 3.00476C32.9523 2.9284 33.1511 2.88911 33.352 2.88911H34.0076L34.0417 3.90641C34.3152 3.71461 34.6025 3.54338 34.9017 3.39421C35.2614 3.21092 35.6376 3.0609 36.0251 2.94602C36.4248 2.82366 36.8395 2.75605 37.2575 2.74504C37.8208 2.69897 38.3861 2.80529 38.8932 3.05274C39.3382 3.31301 39.6717 3.7262 39.8303 4.21411C40.0309 4.75477 40.1313 5.48632 40.1313 6.40878V12.3846H37.7235V6.71469C37.7329 6.31086 37.6908 5.90746 37.598 5.51419C37.5404 5.24678 37.3797 5.01242 37.1501 4.86148C36.8663 4.71503 36.5458 4.65326 36.2274 4.68362C35.8968 4.69455 35.5702 4.75819 35.26 4.87213C34.8855 4.99621 34.537 5.18729 34.2318 5.43593V12.3917H31.8237ZM40.0185 5.47684L39.5633 3.98289C39.8173 3.77873 40.0909 3.60001 40.3804 3.44934C40.7612 3.24566 41.1616 3.07948 41.5752 2.95313C42.0289 2.81348 42.5012 2.74329 42.9764 2.74504C43.5483 2.71387 44.1193 2.82516 44.6369 3.06873C45.0975 3.31836 45.4495 3.72726 45.6259 4.21765C45.8421 4.75477 45.9509 5.48752 45.9521 6.41589V10.8782C45.9523 11.0775 45.9128 11.275 45.8362 11.4593C45.7594 11.6435 45.6471 11.811 45.5052 11.952C45.3632 12.0931 45.1945 12.205 45.0091 12.2814C44.8235 12.3577 44.6247 12.397 44.4238 12.397H43.5441V6.70577C43.5544 6.30399 43.5142 5.90251 43.4242 5.51062C43.3688 5.24471 43.2097 5.01134 42.9815 4.86148C42.6942 4.71435 42.3701 4.6526 42.0482 4.68362C41.6835 4.69054 41.324 4.77037 40.9913 4.9184C40.644 5.06211 40.3171 5.2498 40.0185 5.47684Z" fill="#494965"/>
<path d="M51.2147 12.5267C49.7743 12.5267 48.669 12.0933 47.8987 11.2266C47.1282 10.3599 46.7431 9.15462 46.7431 7.61086C46.7276 6.75747 46.905 5.91146 47.2627 5.13519C47.5935 4.42579 48.1236 3.82617 48.7891 3.40827C49.3709 3.0816 50.0126 2.87371 50.6766 2.79674C51.3404 2.71977 52.0131 2.7753 52.6551 2.96008C53.0907 3.09199 53.4944 3.3111 53.8413 3.6039C54.2036 3.91785 54.4877 4.31119 54.6707 4.75281C54.8909 5.29533 55.0023 5.87528 54.9985 6.46017C54.9985 6.81588 54.9985 7.136 54.9806 7.42945C54.9734 7.68234 54.9478 7.93437 54.9036 8.18355H48.058L48.2373 6.82655H52.7519C52.7836 6.41018 52.7587 5.99148 52.6786 5.5816C52.6196 5.24522 52.4526 4.93689 52.2018 4.70301C51.9114 4.46963 51.543 4.35344 51.1701 4.37756C50.7753 4.36996 50.3885 4.48979 50.0683 4.71903C49.7529 4.94668 49.514 5.3338 49.3516 5.88037C49.165 6.6139 49.0926 7.37139 49.1366 8.12664C49.1314 8.67115 49.2644 9.20817 49.5236 9.68817C49.736 10.0575 50.0617 10.3498 50.4534 10.5223C50.8827 10.6973 51.3437 10.7832 51.8078 10.7748C52.097 10.7816 52.3863 10.7661 52.6732 10.7286C52.9874 10.6835 53.2975 10.6145 53.6011 10.5223C54.1387 10.3587 54.2156 10.3071 54.7675 9.95671C54.6698 10.3541 54.5384 10.7426 54.3751 11.1181C54.1904 11.4462 53.9364 11.7308 53.6305 11.9524C53.3248 12.174 52.9744 12.3275 52.6032 12.4022H52.5907C52.1367 12.4846 51.6762 12.5263 51.2147 12.5267Z" fill="#494965"/>
<path d="M60.2356 12.1234C59.3202 12.7085 57.6989 12.625 56.9678 12.2692C56.5961 12.0907 56.3003 11.7869 56.133 11.412C55.9253 10.8995 55.8301 10.349 55.8536 9.79712V2.23135C55.8536 2.03199 55.8931 1.83457 55.9699 1.6504C56.047 1.46622 56.1595 1.2989 56.3017 1.158C56.4439 1.01711 56.6126 0.905401 56.7982 0.829266C56.9838 0.75313 57.1826 0.714063 57.3835 0.714295H58.2614V2.87519H60.8698V4.54698H58.2614V8.72112C58.2487 9.16389 58.2774 9.60687 58.3474 10.0443C58.4411 10.2974 58.6202 10.5105 58.8545 10.6473C59.252 10.8411 59.9419 10.8749 60.379 10.8144C60.7397 10.7699 61.0888 10.6577 61.4072 10.4836C61.243 11.1591 60.8236 11.7461 60.2356 12.1234Z" fill="#494965"/>
<path d="M31.4655 20.4824C31.4526 19.613 31.6286 18.751 31.9815 17.9552C32.3147 17.2216 32.8596 16.6026 33.5474 16.1767C34.246 15.7356 35.1276 15.4973 36.1935 15.4973C36.908 15.4808 37.6221 15.5404 38.3238 15.6751C38.5183 15.7091 38.7089 15.764 38.8917 15.8388V17.8147C38.6396 17.6635 38.3651 17.5525 38.0782 17.4857C37.5121 17.3357 36.9224 17.2935 36.3403 17.3612C35.9456 17.3803 35.5576 17.4732 35.1974 17.6351C34.8057 17.8348 34.4812 18.1439 34.2641 18.5243C33.9896 19.0352 33.8491 19.6065 33.8555 20.1854C33.82 20.8076 33.9227 21.43 34.1565 22.0084C34.3402 22.4455 34.6523 22.8174 35.0522 23.0755C35.4474 23.3159 35.8988 23.4501 36.3619 23.4651C36.9494 23.4806 37.5366 23.4172 38.1069 23.2765C38.4126 23.2068 38.7079 23.0992 38.9866 22.9564V24.6976C38.7021 24.8576 38.3964 24.9773 38.0782 25.0533C37.3521 25.2243 36.6058 25.2949 35.8603 25.263C34.8983 25.224 34.0902 25.0533 33.4398 24.6317C32.7917 24.2141 32.279 23.6192 31.9637 22.919C31.6225 22.152 31.4526 21.3208 31.4655 20.4824Z" fill="#494965"/>
<path d="M40.6255 25.128V14.8607C40.6255 14.4583 40.7864 14.0725 41.0729 13.788C41.3596 13.5035 41.7482 13.3436 42.1535 13.3436H43.0333V18.1794L42.8183 16.6765C43.0826 16.4655 43.3684 16.2825 43.671 16.1306C44.026 15.9432 44.3994 15.7925 44.7855 15.6806C45.1852 15.5616 45.599 15.4953 46.0163 15.4832C47.0589 15.4547 47.8209 15.7411 48.3021 16.3422C48.7836 16.9433 49.0223 17.918 49.0188 19.2661V25.135H46.6091V19.451C46.6091 18.688 46.4945 18.1545 46.2689 17.8504C46.0431 17.5462 45.6347 17.4057 45.0433 17.4289C44.7171 17.4438 44.3945 17.5037 44.0848 17.6067C43.7027 17.7263 43.3479 17.919 43.0403 18.1741V25.1226L40.6255 25.128Z" fill="#494965"/>
<path d="M52.9061 25.2652C52.3603 25.2778 51.8196 25.1556 51.3332 24.9095C50.891 24.681 50.5228 24.3334 50.2706 23.9064C50.0086 23.4478 49.8768 22.9271 49.889 22.4C49.8747 21.8576 50.0439 21.326 50.3693 20.89C50.707 20.4561 51.1555 20.1196 51.668 19.9154C52.0628 19.7518 52.4735 19.629 52.8937 19.549C53.3281 19.4646 53.7671 19.4052 54.2086 19.3712C54.648 19.338 55.0571 19.3208 55.4359 19.3196L55.8659 19.8532L55.4359 20.6393C55.2225 20.6393 54.9788 20.6606 54.7048 20.6891C54.4344 20.7166 54.1658 20.7593 53.9003 20.8171C53.6735 20.8627 53.4529 20.9343 53.2428 21.0305C53.0034 21.1343 52.7858 21.2822 52.6016 21.4663C52.5052 21.5756 52.4319 21.7028 52.3854 21.8405C52.3389 21.9781 52.3205 22.1236 52.3309 22.2684C52.3309 22.7361 52.4599 23.0847 52.7217 23.3141C53.0194 23.5581 53.3986 23.6819 53.784 23.661C54.0178 23.6599 54.2506 23.6268 54.4755 23.5632C54.6856 23.5055 54.89 23.4293 55.0864 23.3354C55.2159 23.2808 55.3343 23.2031 55.4359 23.1061L55.8729 23.6005L55.5649 24.335C55.2415 24.6015 54.879 24.8176 54.4898 24.9752C53.9877 25.1798 53.4484 25.2783 52.9061 25.2652ZM57.8418 25.1282H55.5649V23.7054H55.4359V18.5477C55.4359 18.0427 55.2996 17.7083 55.031 17.55C54.6719 17.3698 54.2715 17.287 53.87 17.3099C53.4921 17.3117 53.1152 17.345 52.743 17.4095C52.3727 17.47 52.0064 17.5538 51.6466 17.6603C51.359 17.7414 51.0808 17.8529 50.8172 17.9929V16.2143C51.05 16.0561 52.0066 15.7573 52.528 15.6417C53.045 15.5259 53.573 15.4663 54.1028 15.4638C54.8042 15.4457 55.5038 15.5419 56.1739 15.7484C56.7019 15.9165 57.1486 16.2725 57.428 16.7479C57.705 17.2222 57.8436 17.8891 57.8436 18.7487L57.8418 25.1282Z" fill="#494965"/>
<path d="M71.3247 25.284C70.7789 25.2964 70.2384 25.1742 69.7518 24.9283C69.31 24.6994 68.9418 24.3517 68.6895 23.9252C68.4263 23.467 68.2935 22.9462 68.306 22.4189C68.2923 21.8757 68.462 21.3436 68.7879 20.9071C69.1256 20.4734 69.5741 20.1374 70.0869 19.9343C70.4811 19.7693 70.8919 19.6459 71.3123 19.5661C71.7467 19.4816 72.1859 19.4222 72.6272 19.3883C73.0661 19.3527 73.4747 19.3367 73.8528 19.3367L74.2826 19.8703L73.8528 20.6563C73.6413 20.6563 73.3977 20.6795 73.1218 20.7079C72.8513 20.7357 72.5828 20.7785 72.3172 20.836C72.0907 20.8818 71.8701 20.9534 71.6598 21.0494C71.4203 21.1526 71.2032 21.3005 71.0202 21.4851C70.9234 21.5942 70.8496 21.7213 70.8028 21.859C70.7561 21.9967 70.7373 22.1423 70.7478 22.2873C70.7478 22.7532 70.8787 23.1018 71.1403 23.3331C71.4384 23.5759 71.8174 23.6988 72.2026 23.6779C72.4366 23.6777 72.6695 23.6446 72.8941 23.5801C73.1042 23.5231 73.3086 23.4473 73.505 23.3544C73.6347 23.3 73.7527 23.2215 73.8528 23.1232L74.2917 23.6193L73.9818 24.3522C73.6587 24.6191 73.2962 24.8352 72.9068 24.9924C72.4056 25.1974 71.8668 25.2966 71.3247 25.284ZM76.2606 25.1488H73.9818V23.726H73.8528V18.5684C73.8528 18.0609 73.7184 17.7278 73.4496 17.5689C73.0901 17.3904 72.6899 17.3083 72.2886 17.3305C71.911 17.3316 71.5341 17.3643 71.1619 17.4284C70.7913 17.4892 70.425 17.5736 70.0652 17.6809C69.7774 17.761 69.4992 17.8725 69.2358 18.0135V16.235C69.467 16.0785 70.4255 15.7779 70.9469 15.6641C71.4619 15.5542 71.9876 15.4999 72.5144 15.5023C73.2165 15.4836 73.9169 15.5804 74.5873 15.7886C75.1156 15.9551 75.5625 16.3107 75.8414 16.7863C76.1184 17.2606 76.2575 17.9281 76.2587 18.7889L76.2606 25.1488Z" fill="#494965"/>
<path d="M60.5272 13.3686H61.3889V16.8812V23.7106L58.9971 24.6V14.8857C58.9971 14.6863 59.0368 14.4889 59.1136 14.3047C59.1907 14.1205 59.3032 13.9532 59.4454 13.8123C59.5876 13.6714 59.7563 13.5597 59.9419 13.4836C60.1273 13.4074 60.3263 13.3684 60.5272 13.3686ZM62.8401 25.2845C62.4263 25.2845 62.0127 25.2589 61.602 25.208C61.1828 25.1571 60.7899 25.0931 60.4234 25.0161C60.0566 24.939 59.7473 24.8625 59.4952 24.7867C59.3246 24.7417 59.1599 24.6772 59.0044 24.5946L61.3962 23.2962C61.5675 23.424 61.7681 23.5077 61.9801 23.5399C62.3003 23.598 62.6256 23.625 62.9512 23.6199C63.3782 23.6236 63.7943 23.4859 64.1336 23.2286C64.5133 22.9301 64.8033 22.534 64.972 22.0833C65.1955 21.4948 65.3038 20.8695 65.2909 20.2407C65.2909 19.1808 65.1118 18.4267 64.7535 17.9785C64.5744 17.7575 64.3456 17.5812 64.0855 17.4638C63.8253 17.3464 63.5413 17.2912 63.2558 17.3026C62.8805 17.2975 62.5085 17.3721 62.1645 17.5214C61.8934 17.6342 61.6365 17.7787 61.3997 17.9518L61.07 16.7478C61.2458 16.5712 61.4312 16.4044 61.6255 16.248C61.9054 16.0271 62.2186 15.8513 62.5534 15.7269C63.0126 15.5629 63.499 15.4863 63.9868 15.501C64.6461 15.4949 65.2951 15.6644 65.8661 15.9919C66.462 16.3465 66.9413 16.8656 67.2454 17.4858C67.5967 18.1546 67.7715 19.0011 67.7703 20.0256C67.7917 20.9801 67.5809 21.9257 67.1559 22.7822C66.7693 23.5478 66.1716 24.1885 65.4326 24.63C64.6452 25.0804 63.7483 25.3068 62.8401 25.2845Z" fill="#494965"/>
<path d="M80.9962 25.2648C80.3406 25.2686 79.6958 25.0978 79.1293 24.7703C78.5299 24.4125 78.0491 23.8882 77.7462 23.2622C77.3952 22.5887 77.2201 21.7398 77.2213 20.7154C77.1994 19.7656 77.4057 18.8242 77.8233 17.9694C78.1969 17.2167 78.7785 16.5851 79.5001 16.1482C80.2715 15.7031 81.1524 15.4796 82.0442 15.5026C82.5418 15.4897 83.0383 15.5557 83.5151 15.6982C83.7764 15.7703 84.0257 15.88 84.255 16.0237L83.6208 17.539C83.4345 17.3941 83.2134 17.2997 82.9794 17.2651C82.6713 17.2116 82.3588 17.186 82.046 17.1886C81.621 17.1839 81.2053 17.3142 80.8599 17.5603C80.482 17.845 80.1928 18.2296 80.025 18.6701C79.8027 19.2573 79.6982 19.882 79.717 20.5091C79.6991 21.5406 79.8723 22.2852 80.2365 22.7429C80.4148 22.968 80.6449 23.1477 80.9071 23.2671C81.1696 23.3864 81.4567 23.442 81.745 23.4294C82.1186 23.4329 82.4892 23.3616 82.8344 23.2195C83.1131 23.1103 83.3772 22.9675 83.6208 22.7944L83.9378 23.9896C83.7597 24.1702 83.572 24.3412 83.3753 24.5019C83.0936 24.7281 82.7773 24.9082 82.4384 25.0354C81.9767 25.2019 81.4873 25.2798 80.9962 25.2648ZM83.7731 25.1278V23.9166L83.61 23.8136V17.2811V12.7744H84.4717C84.877 12.7744 85.2657 12.9342 85.5523 13.2187C85.839 13.5032 86 13.8891 86 14.2914V25.1278H83.7731Z" fill="#494965"/>
<path d="M68.5065 4.95425C68.9938 5.42911 69.053 6.30058 69.053 7.19873V12.3902H68.752V10.7006C68.605 11.2199 67.7666 12.3404 66.457 12.4311C65.7171 12.4844 64.8552 12.3368 64.3573 11.9349C63.8592 11.5329 63.6406 10.8856 63.6406 10.2115C63.6406 9.57836 63.8002 9.21911 64.248 8.82605C64.6959 8.43301 65.4805 8.2676 66.4784 8.2676H68.752V7.20049C68.752 6.37351 68.725 5.56783 68.2988 5.1481C67.8723 4.72839 67.0447 4.61456 66.2223 4.70526C65.4986 4.81838 64.7998 5.05421 64.1566 5.40244L64.042 5.12677C64.7105 4.75227 65.4462 4.51064 66.208 4.41537C67.1199 4.34065 68.0175 4.47583 68.5065 4.95425ZM68.752 10.1226V8.5664H66.4481C65.5846 8.5664 64.8858 8.69979 64.4774 9.02702C64.0688 9.35428 63.9398 9.64417 63.9398 10.2044C63.9398 10.8073 64.135 11.3889 64.5758 11.7357C65.0166 12.0825 65.6633 12.1963 66.4533 12.1501C67.4047 12.0878 68.1984 11.4707 68.752 10.1226Z" fill="#494965"/>
<path d="M73.8271 11.869C73.6359 12.0623 73.4004 12.207 73.141 12.2906C72.8602 12.3863 72.5653 12.435 72.2685 12.4346C71.6522 12.4346 71.1745 12.2568 70.8352 11.9011C70.4851 11.5112 70.3049 10.9997 70.3335 10.4783V2.74176H70.6416V4.68566H73.8199V4.97557H70.6489V10.4142C70.6489 10.9762 70.788 11.4049 71.0664 11.7001C71.3446 11.9953 71.7507 12.1435 72.2845 12.1447C72.7749 12.1614 73.2522 11.9849 73.6121 11.6539L73.8271 11.869Z" fill="#494965"/>
<path d="M25.5237 2.21396L7.97217 2.19623V24.717L11.8058 23.0286L11.7916 9.93964C13.2234 10.9045 14.9501 11.472 16.8083 11.472C20.5673 11.472 23.7401 9.13444 25.0156 5.8356H25.5237V2.21396ZM16.8083 7.76169C15.1846 7.76169 13.7421 7.0097 12.8006 5.8356H20.816C19.8745 7.0097 18.432 7.76169 16.8083 7.76169Z" fill="#40A2AA"/>
<path d="M0 5.19711C0 5.19711 3.04132 5.04104 3.04132 8.13415V10.642L6.82165 9.27278C6.82165 9.27278 6.82875 4.82111 6.82875 2.19623H0V5.19711Z" fill="#40A2AA"/>
<path d="M25.5231 5.83612C25.3242 5.83612 24.8338 6.19084 24.8516 7.26562C24.8516 9.92952 24.8942 18.432 24.8942 18.432L21.0819 20.085C21.0819 20.085 21.0642 10.3765 21.1175 6.3611" fill="#40A2AA"/>
<path d="M7.97181 7.93547C8.54739 9.21244 10.1462 10.9647 11.7983 11.7416V9.95024C9.39654 8.16958 8.27381 5.93843 7.96826 4.46991C7.96826 4.49474 7.96826 7.93547 7.96826 7.93547H7.97181Z" fill="#2B6B6F"/>
<path d="M25.5246 5.83612H20.8134C20.6465 6.0525 20.2414 6.56328 19.2075 7.16985H24.8567C24.8567 7.16985 24.8638 6.61295 25.0734 6.26178C25.3044 5.85031 25.5282 5.83967 25.5282 5.83967L25.5246 5.83612Z" fill="#2B6B6F"/>
</svg>
